<svg width="1963" height="377" viewBox="0 0 1963 377" fill="none" xmlns="http://www.w3.org/2000/svg">
<mask id="mask0_121_182" style="mask-type:alpha" maskUnits="userSpaceOnUse" x="-1" y="0" width="1964" height="377">
<path fill-rule="evenodd" clip-rule="evenodd" d="M-0.000132892 158.988C-0.000132892 158.988 111.779 179.632 265.85 165.413C419.921 151.195 553.462 44.1409 712.559 43.7671C828.651 43.4944 769.614 170.937 902.704 170.165C1031.64 169.417 1235.65 2.48861 1364.34 5.39169C1515.46 8.80062 1413.19 125.484 1558.46 140.784C1736.36 159.52 1963 57.2498 1963 57.2498L1963 51.8956C1963 51.8956 1736.36 154.165 1558.46 135.43C1413.19 120.13 1515.46 3.44637 1364.34 0.0374375C1235.65 -2.86563 1031.64 164.063 902.704 164.811C769.614 165.583 828.651 38.1402 712.559 38.4129C553.462 38.7867 419.921 145.841 265.85 160.059C111.779 174.278 -0.000133159 153.634 -0.000133159 153.634L-0.000132892 158.988Z" fill="black"/>
<path fill-rule="evenodd" clip-rule="evenodd" d="M-0.00013161 184.689C-0.00013161 184.689 111.779 205.332 265.85 191.114C419.921 176.895 553.462 69.8412 712.559 69.4674C828.651 69.1947 769.614 196.637 902.704 195.865C1031.64 195.117 1235.65 28.1888 1364.34 31.0919C1515.46 34.5008 1413.19 151.185 1558.46 166.484C1736.36 185.22 1963 82.9501 1963 82.9501L1963 77.5959C1963 77.5959 1736.36 179.866 1558.46 161.13C1413.19 145.83 1515.46 29.1466 1364.34 25.7377C1235.65 22.8346 1031.64 189.763 902.704 190.511C769.614 191.283 828.651 63.8405 712.559 64.1132C553.462 64.487 419.921 171.541 265.85 185.759C111.779 199.978 -0.000131877 179.334 -0.000131877 179.334L-0.00013161 184.689Z" fill="black"/>
<path fill-rule="evenodd" clip-rule="evenodd" d="M-0.000130329 210.389C-0.000130329 210.389 111.779 231.032 265.85 216.814C419.921 202.595 553.462 95.5414 712.559 95.1676C828.651 94.8949 769.614 222.338 902.704 221.565C1031.64 220.817 1235.65 53.8891 1364.34 56.7922C1515.46 60.2011 1413.19 176.885 1558.46 192.184C1736.36 210.92 1963 108.65 1963 108.65L1963 103.296C1963 103.296 1736.36 205.566 1558.46 186.83C1413.19 171.531 1515.46 54.8469 1364.34 51.438C1235.65 48.5349 1031.64 215.463 902.704 216.211C769.614 216.983 828.651 89.5407 712.559 89.8134C553.462 90.1872 419.921 197.241 265.85 211.46C111.779 225.678 -0.000130596 205.035 -0.000130596 205.035L-0.000130329 210.389Z" fill="black"/>
<path fill-rule="evenodd" clip-rule="evenodd" d="M-0.000129047 236.089C-0.000129047 236.089 111.779 256.733 265.85 242.514C419.921 228.296 553.462 121.242 712.559 120.868C828.651 120.595 769.614 248.038 902.704 247.266C1031.64 246.518 1235.65 79.5894 1364.34 82.4924C1515.46 85.9014 1413.19 202.585 1558.46 217.885C1736.36 236.62 1963 134.351 1963 134.351L1963 128.996C1963 128.996 1736.36 231.266 1558.46 212.531C1413.19 197.231 1515.46 80.5472 1364.34 77.1382C1235.65 74.2352 1031.64 241.163 902.704 241.911C769.614 242.684 828.651 115.241 712.559 115.514C553.462 115.887 419.921 222.941 265.85 237.16C111.779 251.378 -0.000129314 230.735 -0.000129314 230.735L-0.000129047 236.089Z" fill="black"/>
<path fill-rule="evenodd" clip-rule="evenodd" d="M-0.000127766 261.789C-0.000127766 261.789 111.779 282.433 265.85 268.214C419.921 253.996 553.462 146.942 712.559 146.568C828.651 146.295 769.614 273.738 902.704 272.966C1031.64 272.218 1235.65 105.29 1364.34 108.193C1515.46 111.602 1413.19 228.285 1558.46 243.585C1736.36 262.321 1963 160.051 1963 160.051L1963 154.697C1963 154.697 1736.36 256.966 1558.46 238.231C1413.19 222.931 1515.46 106.247 1364.34 102.838C1235.65 99.9354 1031.64 266.864 902.704 267.612C769.614 268.384 828.651 140.941 712.559 141.214C553.462 141.588 419.921 248.642 265.85 262.86C111.779 277.079 -0.000128033 256.435 -0.000128033 256.435L-0.000127766 261.789Z" fill="black"/>
<path fill-rule="evenodd" clip-rule="evenodd" d="M-0.000126484 287.49C-0.000126484 287.49 111.779 308.133 265.85 293.915C419.921 279.696 553.462 172.642 712.559 172.268C828.651 171.996 769.614 299.438 902.704 298.666C1031.64 297.918 1235.65 130.99 1364.34 133.893C1515.46 137.302 1413.19 253.986 1558.46 269.285C1736.36 288.021 1963 185.751 1963 185.751L1963 180.397C1963 180.397 1736.36 282.667 1558.46 263.931C1413.19 248.632 1515.46 131.948 1364.34 128.539C1235.65 125.636 1031.64 292.564 902.704 293.312C769.614 294.084 828.651 166.641 712.559 166.914C553.462 167.288 419.921 274.342 265.85 288.56C111.779 302.779 -0.000126751 282.135 -0.000126751 282.135L-0.000126484 287.49Z" fill="black"/>
<path fill-rule="evenodd" clip-rule="evenodd" d="M-0.000125203 313.19C-0.000125203 313.19 111.779 333.833 265.85 319.615C419.921 305.396 553.462 198.342 712.559 197.969C828.651 197.696 769.614 325.139 902.704 324.366C1031.64 323.618 1235.65 156.69 1364.34 159.593C1515.46 163.002 1413.19 279.686 1558.46 294.986C1736.36 313.721 1963 211.451 1963 211.451L1963 206.097C1963 206.097 1736.36 308.367 1558.46 289.631C1413.19 274.332 1515.46 157.648 1364.34 154.239C1235.65 151.336 1031.64 318.264 902.704 319.012C769.614 319.784 828.651 192.342 712.559 192.614C553.462 192.988 419.921 300.042 265.85 314.261C111.779 328.479 -0.00012547 307.836 -0.00012547 307.836L-0.000125203 313.19Z" fill="black"/>
<path fill-rule="evenodd" clip-rule="evenodd" d="M-0.000123921 338.89C-0.000123921 338.89 111.779 359.534 265.85 345.315C419.921 331.097 553.462 224.043 712.559 223.669C828.651 223.396 769.614 350.839 902.704 350.067C1031.64 349.319 1235.65 182.39 1364.34 185.293C1515.46 188.702 1413.19 305.386 1558.46 320.686C1736.36 339.421 1963 237.152 1963 237.152L1963 231.797C1963 231.797 1736.36 334.067 1558.46 315.332C1413.19 300.032 1515.46 183.348 1364.34 179.939C1235.65 177.036 1031.64 343.964 902.704 344.712C769.614 345.485 828.651 218.042 712.559 218.315C553.462 218.688 419.921 325.743 265.85 339.961C111.779 354.179 -0.000124188 333.536 -0.000124188 333.536L-0.000123921 338.89Z" fill="black"/>
<path fill-rule="evenodd" clip-rule="evenodd" d="M-0.00012264 364.59C-0.00012264 364.59 111.779 385.234 265.85 371.015C419.921 356.797 553.462 249.743 712.559 249.369C828.651 249.096 769.614 376.539 902.704 375.767C1031.64 375.019 1235.65 208.091 1364.34 210.994C1515.46 214.403 1413.19 331.086 1558.46 346.386C1736.36 365.122 1963 262.852 1963 262.852L1963 257.498C1963 257.498 1736.36 359.767 1558.46 341.032C1413.19 325.732 1515.46 209.048 1364.34 205.64C1235.65 202.736 1031.64 369.665 902.704 370.413C769.614 371.185 828.651 243.742 712.559 244.015C553.462 244.389 419.921 351.443 265.85 365.661C111.779 379.88 -0.000122907 359.236 -0.000122907 359.236L-0.00012264 364.59Z" fill="black"/>
</mask>
<g mask="url(#mask0_121_182)">
<rect width="526.987" height="2128.04" transform="matrix(-4.98622e-08 -1 -1 3.83193e-08 2045.3 451.063)" fill="url(#paint0_linear_121_182)"/>
</g>
<defs>
<linearGradient id="paint0_linear_121_182" x1="643.565" y1="1921.47" x2="482.706" y2="512.347" gradientUnits="userSpaceOnUse">
<stop stop-color="#4C2C82"/>
<stop offset="1" stop-color="#15B6E9"/>
</linearGradient>
</defs>
</svg>
