<?xml version="1.0" standalone="no"?>
<!DOCTYPE svg PUBLIC "-//W3C//DTD SVG 20010904//EN"
 "http://www.w3.org/TR/2001/REC-SVG-20010904/DTD/svg10.dtd">
<svg version="1.0" xmlns="http://www.w3.org/2000/svg"
 width="193.000000pt" height="193.000000pt" viewBox="0 0 193.000000 193.000000"
 preserveAspectRatio="xMidYMid meet">
<metadata>
Created by potrace 1.14, written by Peter Selinger 2001-2017
</metadata>
<g transform="translate(0.000000,193.000000) scale(0.100000,-0.100000)"
fill="#000000" stroke="none">
<path d="M125 1698 c-43 -5 -80 -10 -82 -12 -7 -6 -23 -786 -23 -1113 l0 -363
210 0 210 0 1 83 1 82 13 -63 c7 -35 18 -69 24 -75 7 -7 60 -11 148 -12 l137
0 33 100 33 100 -2 -97 c-3 -90 -1 -97 17 -103 11 -3 102 -8 202 -12 l183 -6
0 51 c0 29 2 52 5 52 2 0 20 -11 40 -25 80 -54 141 -70 270 -70 111 0 125 2
180 28 125 58 195 159 203 290 6 96 -13 152 -74 218 l-44 46 31 29 c52 49 82
119 87 205 8 134 -33 207 -167 296 -2 1 28 36 66 78 98 106 102 115 68 159
-63 83 -184 136 -325 143 -122 7 -203 -13 -283 -67 -37 -25 -59 -35 -62 -27
-2 6 -6 24 -9 38 -5 24 -13 28 -69 38 -35 6 -131 14 -213 17 l-150 7 -17 -94
c-26 -136 -110 -500 -114 -495 -2 2 -30 122 -63 267 -32 145 -63 276 -69 292
l-11 27 -152 -1 c-84 -1 -189 -6 -233 -11z m369 -220 c20 -90 63 -284 95 -433
32 -148 61 -263 65 -255 9 24 90 366 141 595 25 116 49 219 52 229 5 18 13 19
138 13 73 -4 140 -9 148 -13 17 -6 26 -58 31 -174 2 -36 7 -140 11 -231 l8
-166 -34 -42 -33 -42 29 -52 30 -52 -3 -163 c-3 -154 -5 -165 -28 -199 -29
-43 -29 -41 -4 -78 14 -20 20 -47 20 -83 l0 -53 -102 6 c-57 3 -114 8 -126 11
l-24 5 6 247 c3 136 9 310 12 387 3 77 3 137 -1 134 -3 -4 -28 -92 -55 -195
-58 -229 -148 -541 -162 -568 -9 -17 -18 -18 -91 -12 -45 4 -82 8 -82 9 0 1
-22 112 -48 247 -27 135 -65 326 -85 425 l-37 180 -3 -437 -2 -438 -136 0
-136 0 6 323 c3 177 9 473 12 658 3 185 10 343 15 350 8 13 69 19 290 27 l46
2 37 -162z m1116 152 c70 -11 175 -57 204 -89 18 -20 17 -22 -36 -77 l-55 -57
-35 26 c-101 77 -230 77 -252 1 -12 -40 34 -78 136 -114 164 -58 226 -96 258
-161 11 -21 18 -39 15 -39 -3 0 -23 11 -43 25 -80 55 -270 87 -364 62 -37 -10
-144 63 -172 118 -25 49 -26 136 -3 181 30 59 103 106 192 124 57 11 81 11
155 0z m-3 -236 c-5 -5 -57 13 -57 20 0 3 14 0 31 -6 16 -6 28 -12 26 -14z
m-314 -207 l27 -23 -29 -22 c-17 -12 -33 -22 -36 -22 -3 0 -5 20 -5 45 0 25 3
45 8 45 4 -1 19 -11 35 -23z m324 -62 c61 -8 143 -41 182 -74 l34 -28 -48 -57
c-27 -31 -53 -56 -58 -56 -4 0 -23 11 -40 24 -93 70 -216 75 -245 11 -25 -55
8 -84 161 -139 188 -67 253 -132 251 -256 -1 -146 -105 -247 -269 -265 -118
-13 -258 38 -336 122 -46 51 -47 49 37 114 l55 42 47 -46 c79 -77 161 -104
222 -72 36 19 50 43 50 87 0 49 -38 81 -161 134 -182 79 -225 114 -248 200
-15 54 2 134 35 174 33 38 120 80 186 89 52 8 62 7 145 -4z m-315 -445 c36
-24 48 -40 29 -40 -4 0 -25 -11 -45 -25 l-36 -24 0 60 c0 33 3 59 8 57 4 -1
24 -14 44 -28z m206 -101 c86 -39 101 -61 48 -67 -35 -4 -105 37 -140 82 -31
41 -32 41 92 -15z"/>
</g>
</svg>
